<svg xmlns="http://www.w3.org/2000/svg" xmlns:xlink="http://www.w3.org/1999/xlink" width="500" zoomAndPan="magnify" viewBox="0 0 375 149.999998" height="200" preserveAspectRatio="xMidYMid meet" version="1.0"><defs><g/></defs><path fill="#969390" d="M 110.371094 76.332031 C 109.644531 77.457031 108.664062 76.570312 109.292969 75.582031 C 132.4375 39.273438 146.960938 88.53125 193.496094 84.394531 C 265.148438 78.027344 325.042969 57.707031 369.625 75.203125 C 372.730469 76.425781 370.542969 78.984375 367.921875 77.789062 C 330.820312 60.855469 261.894531 78.585938 193.183594 85.769531 C 146.628906 90.636719 133.46875 40.613281 110.371094 76.332031 Z M 110.371094 76.332031 " fill-opacity="1" fill-rule="nonzero"/><g fill="#969390" fill-opacity="1"><g transform="translate(11.289961, 92.749963)"><g><path d="M 37.753906 1.167969 C 37.921875 -6.265625 43.101562 -16.457031 44.855469 -24.390625 C 46.359375 -31.15625 42.097656 -32.410156 40.34375 -32.242188 C 32.324219 -31.324219 24.308594 -10.859375 20.796875 -4.511719 C 24.640625 -17.542969 28.484375 -31.90625 19.964844 -32.492188 C 12.363281 -32.160156 8.6875 -21.300781 2.253906 -2.253906 C 3.589844 -10.105469 3.84375 -12.445312 5.761719 -21.050781 C 6.015625 -24.726562 0.417969 -23.136719 -0.0820312 -20.128906 C -2.171875 -7.101562 -3.175781 -0.5 -3.675781 6.179688 C -3.925781 9.605469 0.917969 7.769531 1.503906 5.597656 C 9.1875 -19.878906 14.199219 -31.492188 19.878906 -31.40625 C 22.21875 -31.324219 16.121094 -11.777344 16.871094 -3.84375 C 17.125 -1.167969 19.460938 -0.335938 21.050781 -2.253906 C 26.5625 -12.695312 34.664062 -31.742188 40.929688 -31.074219 C 42.851562 -30.40625 32.492188 -10.359375 34.496094 1.253906 C 35.75 8.351562 42.265625 9.4375 47.527344 5.429688 C 55.046875 -0.167969 63.816406 -13.617188 68.410156 -19.628906 C 68.410156 -20.046875 67.324219 -20.046875 66.992188 -19.714844 C 63.398438 -15.117188 53.207031 0.25 46.023438 5.011719 C 41.261719 8.101562 37.589844 6.015625 37.753906 1.167969 Z M 37.753906 1.167969 "/></g></g></g><g fill="#969390" fill-opacity="1"><g transform="translate(77.862703, 92.749963)"><g><path d="M 22.386719 -43.6875 C 22.886719 -42.515625 24.390625 -43.601562 23.386719 -44.855469 C 21.550781 -47.277344 14.199219 -46.691406 8.601562 -45.1875 C 9.4375 -50.703125 10.609375 -56.714844 10.773438 -57.46875 C 11.609375 -61.308594 6.847656 -62.0625 5.597656 -57.71875 C 4.761719 -54.960938 3.675781 -48.445312 2.839844 -43.851562 C -1.585938 -42.183594 -6.015625 -41.515625 -7.601562 -42.933594 C -8.101562 -44.9375 -10.359375 -42.683594 -8.351562 -41.847656 C -5.429688 -40.429688 -1.253906 -41.097656 2.671875 -42.601562 C 0.167969 -28.316406 -3.84375 -2.757812 0.75 8.601562 C 2.421875 12.613281 6.765625 16.707031 11.359375 13.28125 C 20.214844 6.683594 29.320312 -13.617188 33.914062 -19.628906 C 33.914062 -20.046875 32.828125 -20.046875 32.492188 -19.714844 C 28.902344 -15.117188 18.125 7.769531 10.191406 12.613281 C 6.265625 14.867188 4.09375 10.859375 3.507812 7.265625 C 2.089844 -1.585938 5.597656 -27.898438 8.4375 -43.9375 C 16.707031 -46.023438 21.550781 -45.691406 22.386719 -43.6875 Z M 22.386719 -43.6875 "/></g></g></g><g fill="#969390" fill-opacity="1"><g transform="translate(127.300138, 116.993659)"><g><path d="M 14.5 -13.140625 L 14.5 0 L 12.796875 0 L 12.796875 -8.234375 L 8.125 -1.609375 L 8.078125 -1.609375 L 3.484375 -8.015625 L 3.484375 0 L 1.828125 0 L 1.828125 -13.140625 L 1.84375 -13.140625 L 8.125 -4.265625 L 14.46875 -13.140625 Z M 14.5 -13.140625 "/></g></g></g><g fill="#969390" fill-opacity="1"><g transform="translate(148.142401, 116.993659)"><g><path d="M 8.5 -3.34375 L 3.609375 -3.34375 L 2.25 0 L 0.5625 0 L 6.125 -13.265625 L 6.234375 -13.265625 L 11.796875 0 L 9.828125 0 Z M 7.921875 -4.828125 L 6.109375 -9.46875 L 4.21875 -4.828125 Z M 7.921875 -4.828125 "/></g></g></g><g fill="#969390" fill-opacity="1"><g transform="translate(165.006363, 116.993659)"><g><path d="M 3.546875 -12.734375 L 3.546875 0 L 1.828125 0 L 1.828125 -12.734375 Z M 3.546875 -12.734375 "/></g></g></g><g fill="#969390" fill-opacity="1"><g transform="translate(174.899529, 116.993659)"><g/></g></g><g fill="#969390" fill-opacity="1"><g transform="translate(184.986315, 116.993659)"><g><path d="M 9.34375 -12.734375 L 9.34375 -11.09375 L 5.9375 -11.09375 L 5.9375 0 L 4.21875 0 L 4.21875 -11.09375 L 0.890625 -11.09375 L 0.890625 -12.734375 Z M 9.34375 -12.734375 "/></g></g></g><g fill="#969390" fill-opacity="1"><g transform="translate(199.75551, 116.993659)"><g><path d="M 11.921875 0 L 10.21875 0 L 10.21875 -5.578125 L 3.546875 -5.578125 L 3.546875 0 L 1.828125 0 L 1.828125 -12.734375 L 3.546875 -12.734375 L 3.546875 -7.21875 L 10.21875 -7.21875 L 10.21875 -12.734375 L 11.921875 -12.734375 Z M 11.921875 0 "/></g></g></g><g fill="#969390" fill-opacity="1"><g transform="translate(218.027724, 116.993659)"><g><path d="M 3.546875 -12.734375 L 3.546875 0 L 1.828125 0 L 1.828125 -12.734375 Z M 3.546875 -12.734375 "/></g></g></g><g fill="#969390" fill-opacity="1"><g transform="translate(227.920885, 116.993659)"><g/></g></g><g fill="#969390" fill-opacity="1"><g transform="translate(238.007668, 116.993659)"><g><path d="M 9.34375 -12.734375 L 9.34375 -11.09375 L 5.9375 -11.09375 L 5.9375 0 L 4.21875 0 L 4.21875 -11.09375 L 0.890625 -11.09375 L 0.890625 -12.734375 Z M 9.34375 -12.734375 "/></g></g></g><g fill="#969390" fill-opacity="1"><g transform="translate(252.776863, 116.993659)"><g><path d="M 1.03125 -6.359375 C 1.03125 -7.515625 1.320312 -8.59375 1.90625 -9.59375 C 2.5 -10.59375 3.289062 -11.390625 4.28125 -11.984375 C 5.28125 -12.578125 6.363281 -12.875 7.53125 -12.875 C 8.695312 -12.875 9.78125 -12.578125 10.78125 -11.984375 C 11.78125 -11.390625 12.570312 -10.59375 13.15625 -9.59375 C 13.75 -8.59375 14.046875 -7.515625 14.046875 -6.359375 C 14.046875 -5.179688 13.753906 -4.09375 13.171875 -3.09375 C 12.585938 -2.101562 11.789062 -1.316406 10.78125 -0.734375 C 9.78125 -0.148438 8.695312 0.140625 7.53125 0.140625 C 6.363281 0.140625 5.28125 -0.144531 4.28125 -0.71875 C 3.28125 -1.289062 2.488281 -2.070312 1.90625 -3.0625 C 1.320312 -4.0625 1.03125 -5.160156 1.03125 -6.359375 Z M 2.796875 -6.34375 C 2.796875 -5.46875 3.003906 -4.660156 3.421875 -3.921875 C 3.847656 -3.179688 4.425781 -2.59375 5.15625 -2.15625 C 5.894531 -1.726562 6.703125 -1.515625 7.578125 -1.515625 C 8.441406 -1.515625 9.234375 -1.726562 9.953125 -2.15625 C 10.679688 -2.582031 11.253906 -3.164062 11.671875 -3.90625 C 12.085938 -4.65625 12.296875 -5.472656 12.296875 -6.359375 C 12.296875 -7.234375 12.082031 -8.046875 11.65625 -8.796875 C 11.238281 -9.554688 10.664062 -10.148438 9.9375 -10.578125 C 9.207031 -11.015625 8.40625 -11.234375 7.53125 -11.234375 C 6.664062 -11.234375 5.867188 -11.015625 5.140625 -10.578125 C 4.410156 -10.140625 3.835938 -9.539062 3.421875 -8.78125 C 3.003906 -8.03125 2.796875 -7.21875 2.796875 -6.34375 Z M 2.796875 -6.34375 "/></g></g></g><g fill="#969390" fill-opacity="1"><g transform="translate(272.386898, 116.993659)"><g><path d="M 12.921875 -12.734375 L 12.921875 0.421875 L 12.875 0.421875 L 3.515625 -9.0625 L 3.5625 0 L 1.828125 0 L 1.828125 -13.125 L 1.921875 -13.125 L 11.25 -3.515625 L 11.21875 -12.734375 Z M 12.921875 -12.734375 "/></g></g></g><g fill="#969390" fill-opacity="1"><g transform="translate(291.662474, 116.993659)"><g/></g></g><g fill="#969390" fill-opacity="1"><g transform="translate(301.749256, 116.993659)"><g><path d="M 12.921875 -12.734375 L 12.921875 0.421875 L 12.875 0.421875 L 3.515625 -9.0625 L 3.5625 0 L 1.828125 0 L 1.828125 -13.125 L 1.921875 -13.125 L 11.25 -3.515625 L 11.21875 -12.734375 Z M 12.921875 -12.734375 "/></g></g></g><g fill="#969390" fill-opacity="1"><g transform="translate(321.024833, 116.993659)"><g><path d="M 3.375 -4.515625 C 3.375 -3.941406 3.507812 -3.429688 3.78125 -2.984375 C 4.050781 -2.535156 4.414062 -2.175781 4.875 -1.90625 C 5.34375 -1.644531 5.859375 -1.515625 6.421875 -1.515625 C 7.015625 -1.515625 7.546875 -1.644531 8.015625 -1.90625 C 8.492188 -2.164062 8.867188 -2.519531 9.140625 -2.96875 C 9.410156 -3.425781 9.546875 -3.941406 9.546875 -4.515625 L 9.546875 -12.734375 L 11.21875 -12.734375 L 11.21875 -4.453125 C 11.21875 -3.546875 11.003906 -2.742188 10.578125 -2.046875 C 10.160156 -1.347656 9.585938 -0.804688 8.859375 -0.421875 C 8.128906 -0.046875 7.316406 0.140625 6.421875 0.140625 C 5.546875 0.140625 4.742188 -0.046875 4.015625 -0.421875 C 3.285156 -0.804688 2.710938 -1.347656 2.296875 -2.046875 C 1.878906 -2.742188 1.671875 -3.546875 1.671875 -4.453125 L 1.671875 -12.734375 L 3.375 -12.734375 Z M 3.375 -4.515625 "/></g></g></g></svg>