<svg xmlns="http://www.w3.org/2000/svg" xmlns:xlink="http://www.w3.org/1999/xlink" width="500" zoomAndPan="magnify" viewBox="0 0 375 374.999991" height="500" preserveAspectRatio="xMidYMid meet" version="1.0"><defs><g/></defs><g fill="#969390" fill-opacity="1"><g transform="translate(17.16611, 252.280371)"><g><path d="M 133.320312 4.128906 C 133.910156 -22.121094 152.199219 -58.105469 158.394531 -86.128906 C 163.703125 -110.019531 148.660156 -114.445312 142.464844 -113.855469 C 114.148438 -110.609375 85.832031 -38.34375 73.445312 -15.929688 C 87.011719 -61.941406 100.582031 -112.675781 70.496094 -114.738281 C 43.652344 -113.558594 30.675781 -75.214844 7.964844 -7.964844 C 12.683594 -35.691406 13.566406 -43.949219 20.351562 -74.328125 C 21.238281 -87.308594 1.476562 -81.703125 -0.296875 -71.085938 C -7.667969 -25.070312 -11.207031 -1.769531 -12.976562 21.828125 C -13.863281 33.921875 3.246094 27.429688 5.308594 19.761719 C 32.445312 -70.199219 50.144531 -111.199219 70.199219 -110.90625 C 78.460938 -110.609375 56.925781 -41.589844 59.582031 -13.566406 C 60.46875 -4.128906 68.726562 -1.179688 74.328125 -7.964844 C 93.796875 -44.832031 122.410156 -112.085938 144.53125 -109.726562 C 151.316406 -107.367188 114.738281 -36.574219 121.820312 4.425781 C 126.242188 29.496094 149.25 33.332031 167.832031 19.171875 C 194.378906 -0.589844 225.347656 -48.078125 241.574219 -69.316406 C 241.574219 -70.789062 237.738281 -70.789062 236.558594 -69.609375 C 223.875 -53.386719 187.890625 0.886719 162.523438 17.699219 C 145.710938 28.609375 132.730469 21.238281 133.320312 4.128906 Z M 133.320312 4.128906 "/></g></g></g><g fill="#969390" fill-opacity="1"><g transform="translate(252.231433, 252.280371)"><g><path d="M 79.050781 -154.265625 C 80.820312 -150.132812 86.128906 -153.96875 82.589844 -158.394531 C 76.101562 -166.949219 50.144531 -164.882812 30.382812 -159.574219 C 33.332031 -179.039062 37.460938 -200.277344 38.050781 -202.933594 C 41 -216.5 24.1875 -219.15625 19.761719 -203.816406 C 16.8125 -194.082031 12.976562 -171.078125 10.027344 -154.855469 C -5.605469 -148.953125 -21.238281 -146.59375 -26.839844 -151.609375 C -28.609375 -158.6875 -36.574219 -150.722656 -29.496094 -147.773438 C -19.171875 -142.761719 -4.425781 -145.121094 9.4375 -150.429688 C 0.589844 -99.992188 -13.566406 -9.734375 2.65625 30.382812 C 8.554688 44.539062 23.890625 58.992188 40.113281 46.898438 C 71.378906 23.597656 103.53125 -48.078125 119.753906 -69.316406 C 119.753906 -70.789062 115.917969 -70.789062 114.738281 -69.609375 C 102.054688 -53.386719 64.007812 27.429688 35.984375 44.539062 C 22.121094 52.503906 14.453125 38.34375 12.386719 25.660156 C 7.375 -5.605469 19.761719 -98.515625 29.789062 -155.148438 C 58.992188 -162.523438 76.101562 -161.34375 79.050781 -154.265625 Z M 79.050781 -154.265625 "/></g></g></g></svg>